{"title":"The Frozen Ground 2013 WEBRip 480p x264 AAC - VYTO [P2PDL]","uid":8843708,"size":373107178,"categoryP":"video","categoryS":"movies","magnet":"?xt=urn:btih:f8781c82b96e92569d497b6ea584d9a6719a25a0&amp;dn=The+Frozen+Ground+2013+WEBRip+480p+x264+AAC+-+VYTO+%5BP2PDL%5D&amp;tr=udp%3A%2F%2Ftracker.openbittorrent.com%3A80&amp;tr=udp%3A%2F%2Fopen.demonii.com%3A1337&amp;tr=udp%3A%2F%2Ftracker.coppersurfer.tk%3A6969&amp;tr=udp%3A%2F%2Fexodus.desync.com%3A6969","seeders":1,"leechers":0,"uploader":"ValidusVyto","files":-1,"time":1377319819,"description":"_______ Visit us at our Semi Public Bittorrent Community ________\n  &lt;a href=&quot;\nhttp://p2pdl.com&quot; rel=&quot;nofollow&quot; target=&quot;_NEW&quot;&gt;\nhttp://p2pdl.com&lt;/a&gt;  _____________________________ &lt;a href=&quot; http://p2pdl.com&quot; rel=&quot;nofollow&quot; target=&quot;_NEW&quot;&gt; http://p2pdl.com&lt;/a&gt;\n\n                         \nThe Frozen Ground 2013 WEBRip 480p x264 AAC - VYTO\n\n\nGenre: Crime | Thriller\nPlot: An Alaska State Trooper partners with a young woman who escaped the clutches\nof serial killer Robert Hansen to bring the murderer to justice. Based on actual events.  \nDirector: Scott Walker\nStars: Vanessa Hudgens, Nicolas Cage, Dean Norris.\nRated: R for violent content, sexuality/nudity, language and drug use.\n\nIMDb: &lt;a href=&quot;\nhttp://www.imdb.com/title/tt2005374/&quot; rel=&quot;nofollow&quot; target=&quot;_NEW&quot;&gt;\nhttp://www.imdb.com/title/tt2005374/&lt;/a&gt;\n\nTrailer:\n\n\nFormat                         : MPEG-4\nFile size                      : 352 MiB\nDuration                       : 1h 45mn\nOverall bit rate               : 466 Kbps\n\nVideo\nFormat                         : AVC\nBit rate                       : 423 Kbps\nWidth                          : 720 pixels\nHeight                         : 304 pixels\nDisplay aspect ratio           : 2.35:1\nFrame rate mode                : Constant\nFrame rate                     : 23.976 fps\nBit depth                      : 10 bits\nStream size                    : 319 MiB (91%)\nWriting library                : x264 core 133 r2334\n\nAudio\nFormat                         : AAC\nBit rate mode                  : Variable\nBit rate                       : 40.0 Kbps\nChannel(s)                     : 2 channels\nChannel positions              : Front: L R\nSampling rate                  : 48.0 KHz\nStream size                    : 30.2 MiB (9%)\nLanguage                       : English\n\nSource                         : WEB-DL.X264.AC3 - BiTo\n                                 Didn't know BiTo watermarks his source.\n                                 Might have a watermark poping up and goes\n                                 after few sec's.\n &lt;a href=&quot;\nhttp://ultraimg.com/images/NOlk.png&quot; rel=&quot;nofollow&quot; target=&quot;_NEW&quot;&gt;\nhttp://ultraimg.com/images/NOlk.png&lt;/a&gt; &lt;a href=&quot;\nhttp://ultraimg.com/images/oV0WX.png&quot; rel=&quot;nofollow&quot; target=&quot;_NEW&quot;&gt;\nhttp://ultraimg.com/images/oV0WX.png&lt;/a&gt; &lt;a href=&quot;\nhttp://ultraimg.com/images/yj7d9.png&quot; rel=&quot;nofollow&quot; target=&quot;_NEW&quot;&gt;\nhttp://ultraimg.com/images/yj7d9.png&lt;/a&gt; &lt;a href=&quot;\nhttp://ultraimg.com/images/vQoTL.png&quot; rel=&quot;nofollow&quot; target=&quot;_NEW&quot;&gt;\nhttp://ultraimg.com/images/vQoTL.png&lt;/a&gt; &lt;a href=&quot;\nhttp://ultraimg.com/images/DG4kp.png&quot; rel=&quot;nofollow&quot; target=&quot;_NEW&quot;&gt;\nhttp://ultraimg.com/images/DG4kp.png&lt;/a&gt; &lt;a href=&quot;\nhttp://ultraimg.com/images/XuxRV.png&quot; rel=&quot;nofollow&quot; target=&quot;_NEW&quot;&gt;\nhttp://ultraimg.com/images/XuxRV.png&lt;/a&gt; &lt;a href=&quot;\nhttp://ultraimg.com/images/1cWO8.png&quot; rel=&quot;nofollow&quot; target=&quot;_NEW&quot;&gt;\nhttp://ultraimg.com/images/1cWO8.png&lt;/a&gt;\n\n\n----------------------------------------------------------------------------------------------------\n\n\nEncoded using revolutionary 10bit encoding, which enables us to provide you more crispier \nand sharper images at small sizes, just make sure you follow our instructions without a fault.\nRecommend to you to use latest version of VLC player. Install K-Lite Codec Pack or shark007 codecs\nin case of any kind of problem in playback (For non-VLC Media Player users). Alternatively, install\nCore AVC codecs, the fastest decoder that there is coupled with Community Center Codec Pack and play\non Windows Media Player Classic. Check sample to be sure.\nEnjoy!\n\nEncoder Notes:Looking For Early Access To Anything You Can Provide DVDScr, R5, DVDR, BluRay, Direct\nAudio, Music Releases and Seedboxes. We require dedicated servers, so as to do more \nand fast releases of movies.\nIf You Got anything to offer please contact us at &quot;&lt;a class=&quot;__cf_email__&quot; href=&quot;/cdn-cgi/l/email-protection&quot; data-cfemail=&quot;64141603240c11170c4a070b09&quot;&gt;[email&amp;#160;protected]&lt;/a&gt;&lt;script cf-hash='f9e31' type=&quot;text/javascript&quot;&gt;\n/* &lt;![CDATA[ */!function(){try{var t=&quot;currentScript&quot;in document?document.currentScript:function(){for(var t=document.getElementsByTagName(&quot;script&quot;),e=t.length;e--;)if(t[e].getAttribute(&quot;cf-hash&quot;))return t[e]}();if(t&amp;&amp;t.previousSibling){var e,r,n,i,c=t.previousSibling,a=c.getAttribute(&quot;data-cfemail&quot;);if(a){for(e=&quot;&quot;,r=parseInt(a.substr(0,2),16),n=2;a.length-n;n+=2)i=parseInt(a.substr(n,2),16)^r,e+=String.fromCharCode(i);e=document.createTextNode(e),c.parentNode.replaceChild(e,c)}}}catch(u){}}();/* ]]&gt; */&lt;/script&gt;&quot;.\n\nFace book Fan Page:  \nSearch P2PDL on FB and hit like!!!\n\nFor more of our team uploads visit @                &lt;a href=&quot;\nhttp://thepiratebay.se/user/vitamin_x&quot; rel=&quot;nofollow&quot; target=&quot;_NEW&quot;&gt;\nhttp://thepiratebay.se/user/vitamin_x&lt;/a&gt;","torrent":{"xt":"urn:btih:f8781c82b96e92569d497b6ea584d9a6719a25a0","amp;dn":"The+Frozen+Ground+2013+WEBRip+480p+x264+AAC+-+VYTO+%5BP2PDL%5D","amp;tr":["udp%3A%2F%2Ftracker.openbittorrent.com%3A80","udp%3A%2F%2Fopen.demonii.com%3A1337","udp%3A%2F%2Ftracker.coppersurfer.tk%3A6969","udp%3A%2F%2Fexodus.desync.com%3A6969"],"infoHash":"f8781c82b96e92569d497b6ea584d9a6719a25a0","infoHashBuffer":{"type":"Buffer","data":[248,120,28,130,185,110,146,86,157,73,123,110,165,132,217,166,113,154,37,160]},"announce":[],"urlList":[]}}